<?xml version="1.0" encoding="UTF-8" standalone="no"?>
<svg
   width="1065"
   height="896"
   viewBox="0 0 1065 896"
   version="1.1"
   id="svg10"
   sodipodi:docname="mode_logo.svg"
   xml:space="preserve"
   inkscape:version="1.4.2 (ebf0e940, 2025-05-08)"
   xmlns:inkscape="http://www.inkscape.org/namespaces/inkscape"
   xmlns:sodipodi="http://sodipodi.sourceforge.net/DTD/sodipodi-0.dtd"
   xmlns="http://www.w3.org/2000/svg"
   xmlns:svg="http://www.w3.org/2000/svg"><sodipodi:namedview
     id="namedview10"
     pagecolor="#ffffff"
     bordercolor="#000000"
     borderopacity="0.25"
     inkscape:showpageshadow="2"
     inkscape:pageopacity="0.0"
     inkscape:pagecheckerboard="0"
     inkscape:deskcolor="#d1d1d1"
     inkscape:zoom="0.47199598"
     inkscape:cx="557.20813"
     inkscape:cy="467.16499"
     inkscape:window-width="1472"
     inkscape:window-height="796"
     inkscape:window-x="0"
     inkscape:window-y="37"
     inkscape:window-maximized="0"
     inkscape:current-layer="svg10" /><path
     fill="#94CD5D"
     transform="matrix(1.16648 0 0 1.16667 0 3.8147e-06)"
     d="M360.424 464.133C369.343 469.934 376.75 474.162 387.251 477.276C391.067 478.407 396.347 478.748 399.79 479.982L398.681 480.785L398.668 481.746C409.923 510.006 435.536 556.801 456.859 577.761C526.87 646.582 628.08 674.644 722.488 689.478C735.403 691.507 748.63 693.905 761.61 695.491L845.392 705.341C855.088 706.503 865.05 706.865 874.668 708.831C881.917 710.313 888.056 718.15 885.48 725.597C880.417 740.239 866.707 735.451 855.241 734.364C849.038 733.777 842.57 733.054 836.317 732.439C797.092 728.622 757.999 723.555 719.096 717.246C616.509 700.475 508.947 671.229 433.891 594.273C419.436 579.452 404.935 556.438 394.976 538.423C386.753 523.301 379.181 507.834 372.281 492.065C368.216 482.684 364.9 473.447 360.424 464.133Z"
     id="path4" /><path
     fill="#FF403B"
     d="M294.401 52.6059C296.086 49.5121 299.053 43.2068 301.759 41.3523L302.527 41.3937C304.261 43.8721 302.044 52.5073 301.048 55.397C300.636 53.4231 300.556 49.9673 300.04 47.288C298.146 49.1457 296.652 51.1633 294.401 52.6059Z"
     id="path7"
     transform="matrix(1.16648 0 0 1.16667 0 3.8147e-06)" /><defs
     id="defs8"><rect
       x="461.33176"
       y="123.23246"
       width="227.50608"
       height="132.71188"
       id="rect1" /><linearGradient
       id="gradient_0"
       gradientUnits="userSpaceOnUse"
       x1="69.251648"
       y1="546.72571"
       x2="146.58325"
       y2="617.06702"><stop
         offset="0"
         stop-color="#A6BE5A"
         id="stop7" /><stop
         offset="1"
         stop-color="#8DD55F"
         id="stop8" /></linearGradient></defs><path
     fill="url(#gradient_0)"
     transform="matrix(1.16648 0 0 1.16667 0 3.8147e-06)"
     d="M164.559 465.071C170.242 458.271 175.574 448.727 180.722 441.321C182.834 438.282 184.932 434.175 187.454 431.548C182.035 453.694 178.262 475.992 171.436 497.828C166.643 513.16 160.339 528.332 154.073 543.115C132.033 595.108 104.487 643.612 73.3028 690.627C67.7141 699.053 51.6035 725.467 44.9439 729.624C41.7149 731.64 38.0505 732.364 34.3517 731.338C30.529 730.277 27.4146 727.65 25.4995 724.207C23.7569 721.073 23.5208 717.635 24.4929 714.21C26.3817 707.556 38.5294 691.865 42.855 685.39C50.9067 673.437 58.8017 661.38 66.538 649.221C98.6471 598.768 133.8 530.064 149.188 472.418C150.754 466.553 154.362 456.158 153.702 450.253L154.117 450.047C156.108 452.244 163.01 462.517 164.559 465.071Z"
     id="path8" /><path
     fill="#D3974B"
     transform="matrix(1.16648 0 0 1.16667 0 3.8147e-06)"
     d="M222.291 144.019C227.939 146.759 235.765 152.628 241.726 155.905C240.976 159.615 239.185 177.952 238.158 179.337C238.175 177.531 238.178 176.183 238.4 174.369C234.591 178.47 228.377 202.083 226.893 208.074C216.198 251.234 209.93 295.423 202.814 339.264L197.861 370.183C196.534 378.212 194.978 385.98 194.133 394.087C191.199 389.947 169.72 359.765 169.567 357.752L170.194 358.068L170.875 357.797C171.302 354.956 172.145 351.726 172.649 348.651L178.22 313.509C184.066 276.47 199.261 170.809 222.291 144.019Z"
     id="path9" /><path
     fill="#d3974b"
     d="m 324.66711,196.8814 c 6.75219,0.34689 12.5972,0.68544 19.21702,2.19223 -1.3553,0.0977 -3.68092,0.0203 -4.54923,0.6926 1.08448,4.92805 5.95553,14.33355 8.00305,19.39631 5.06292,12.53709 9.82467,25.18861 14.28282,37.94504 15.38916,44.9509 30.11039,90.11875 44.15883,135.49044 -0.004,0.65803 -5.99075,8.56866 -7.09223,9.65584 -8.15485,8.04176 -10.52418,22.57916 -15.50575,30.66622 -2.71423,-6.16782 -7.85367,-23.69018 -10.20114,-30.97139 l -20.9998,-65.47491 c -8.91021,-27.89463 -18.30742,-55.63668 -28.18553,-83.21542 -3.93837,-10.76685 -8.78756,-21.44072 -12.56198,-32.05498 l -1.03348,-0.31352 c 0.12752,-1.50083 12.47941,-20.83157 14.46742,-24.00846 z"
     id="path10"
     style="stroke-width:1.2032" /><path
     fill="#f81819"
     d="m 296.47191,137.09154 c 5.561,-10.829 18.221,-30.362 24.874,-41.397005 l 19.83954,-32.065217 c 2.882,-4.792 9.453,-17.941 13.525,-20.65 l -0.62434,0.116141 c 1.319,3.451 -2.3272,36.895081 -3.1772,43.025081 -3.083,22.131 -5.975,44.288 -8.676,66.468 6.164,4.558 18.135,11.37 24.999,15.551 l 44.74,27.313 c 8.05,4.959 17.326,10.429 25.02,15.804 -14.318,0.141 -28.153,-1.844 -42.293,-3.731 l -45.067,-6.014 c -6.914,-0.88 -17.156,-2.493 -24.124,-2.494 -0.671,0 -1.693,1.914 -2.25,2.73 -6.971,13.815 -17.292,29.185 -24.95,42.886 -1.385,2.478 -8.958,15.087 -9.965,16.22 -5.842,10.414 -15.043,24.959 -21.682,35.002 0.05,-5.479 0.336,-16.105 1.81,-21.155 -0.081,-3.417 2.585,-20.879 3.213,-25.585 2.973,-22.253 6.524,-44.26 9.258,-66.587 l -57.865,-35.229 c -10.981,-6.638 -27.042,-15.677 -37.06,-23.125 13.764,-0.066 29.602,2.534 43.507,4.283 z"
     id="path2-9"
     sodipodi:nodetypes="ccccccccccccccsccccccccc" /><text
  xml:space="preserve"
  style="font-style:normal;font-variant:normal;font-weight:normal;font-stretch:normal;font-size:292.357px;font-family:Broadway;-inkscape-font-specification:Broadway;text-align:start;writing-mode:lr-tb;direction:ltr;text-anchor:start;display:inline;opacity:1;fill:currentColor;fill-opacity:1;stroke:none;stroke-width:4.56807"
  x="91.683937"
  y="558.64014"
  id="text2"
  transform="scale(1.0049427,0.99508161)"><tspan
    sodipodi:role="line"
    id="tspan2"
    x="91.683937"
    y="558.64014"
    style="font-size:292.357px;fill:currentColor;fill-opacity:1;stroke:none;stroke-width:4.56807">MODE</tspan></text></svg>
